<?xml version="1.0" encoding="UTF-8" standalone="no"?>
        <svg xmlns="http://www.w3.org/2000/svg" viewBox="0 0 400 400">
  <g transform="scale(0.5) translate(0, 0)">
    <svg xmlns="http://www.w3.org/2000/svg" width="512" height="512" viewBox="0 0 512 512"><mask id="a"><circle cx="256" cy="256" r="256" fill="#fff"/></mask><g mask="url(#a)"><path fill="#eee" d="M256 0h256v64l-32 32 32 32v64l-32 32 32 32v64l-32 32 32 32v64l-256 32L0 448v-64l32-32-32-32v-64z"/><path fill="#d80027" d="M224 64h288v64H224Zm0 128h288v64H256ZM0 320h512v64H0Zm0 128h512v64H0Z"/><path fill="#0052b4" d="M0 0h256v256H0Z"/><path fill="#eee" d="m187 243 57-41h-70l57 41-22-67zm-81 0 57-41H93l57 41-22-67zm-81 0 57-41H12l57 41-22-67zm162-81 57-41h-70l57 41-22-67zm-81 0 57-41H93l57 41-22-67zm-81 0 57-41H12l57 41-22-67Zm162-82 57-41h-70l57 41-22-67Zm-81 0 57-41H93l57 41-22-67zm-81 0 57-41H12l57 41-22-67Z"/></g></svg>
  </g>
  <g transform="scale(0.5) translate(225, 225)">
    <clipPath id="clip">
      <circle cx="256" cy="256" r="280"/>
    </clipPath>
    <g clip-path="url(#clip)">
      <circle cx="256" cy="256" r="280" fill="white"/>
    </g>
    <svg xmlns="http://www.w3.org/2000/svg" width="512" height="512" viewBox="0 0 512 512"><mask id="a"><circle cx="256" cy="256" r="256" fill="#fff"/></mask><g mask="url(#a)"><path fill="#0052b4" d="M0 0h512v133.7l-39 121.6 39 123.2V512H0V378.5L34.2 255 0 133.7z"/><path fill="#d80027" d="M0 133.7h512v244.8H0z"/><path fill="#eee" d="M345 306.1v-33.3h-22.2v-44.5L300.5 206l-22.2 22.3v-44.5L256 161.5l-22.3 22.3v44.5L211.5 206l-22.3 22.3v44.5H167v33.4h-22.3v33.4h222.6v-33.5z"/></g></svg>
  </g>
</svg>
        